<svg width="110" height="18" viewBox="0 0 110 18" fill="none" xmlns="http://www.w3.org/2000/svg">
<path d="M0.429688 17.5V0.53125H7.08594C10.9531 0.53125 13.1562 2.71094 13.1562 6.0625C13.1562 8.38281 12.0898 10.0703 10.1562 10.8906L13.7656 17.5H9.875L6.64062 11.4766H3.94531V17.5H0.429688ZM3.94531 8.61719H6.42969C8.51562 8.61719 9.52344 7.75 9.52344 6.0625C9.52344 4.35156 8.51562 3.41406 6.42969 3.41406H3.94531V8.61719ZM18.4297 17.5H14.6328L20.5156 0.53125H25.0391L30.8984 17.5H27.125L25.8594 13.5859H19.7188L18.4297 17.5ZM20.6094 10.8438H24.9688L22.8359 4.35156H22.7188L20.6094 10.8438ZM34.9062 17.5L30.0547 0.53125H33.8984L36.7578 12.3906H36.8984L40.0156 0.53125H43.3203L46.4375 12.4141H46.5781L49.4375 0.53125H53.2812L48.4297 17.5H44.9844L41.75 6.29688H41.6094L38.3516 17.5H34.9062ZM55.0859 17.5V0.53125H61.7422C65.6094 0.53125 67.8125 2.71094 67.8125 6.0625C67.8125 8.38281 66.7461 10.0703 64.8125 10.8906L68.4219 17.5H64.5312L61.2969 11.4766H58.6016V17.5H55.0859ZM58.6016 8.61719H61.0859C63.1719 8.61719 64.1797 7.75 64.1797 6.0625C64.1797 4.35156 63.1719 3.41406 61.0859 3.41406H58.6016V8.61719ZM85.7891 9.01562C85.7891 14.5469 82.3438 17.7344 77.8672 17.7344C73.3438 17.7344 69.9219 14.5234 69.9219 9.01562C69.9219 3.48438 73.3438 0.296875 77.8672 0.296875C82.3438 0.296875 85.7891 3.48438 85.7891 9.01562ZM82.2031 9.01562C82.2031 5.38281 80.4922 3.41406 77.8672 3.41406C75.2422 3.41406 73.5078 5.38281 73.5078 9.01562C73.5078 12.6484 75.2422 14.6172 77.8672 14.6172C80.4922 14.6172 82.2031 12.6484 82.2031 9.01562ZM91.5078 17.5L86.6562 0.53125H90.5L93.3594 12.3906H93.5L96.6172 0.53125H99.9219L103.039 12.4141H103.18L106.039 0.53125H109.883L105.031 17.5H101.586L98.3516 6.29688H98.2109L94.9531 17.5H91.5078Z" fill="#111111"/>
</svg>
